<?xml version="1.0" encoding="UTF-8"?>
<svg version="1.1" xmlns="http://www.w3.org/2000/svg" width="156" height="161">
<path d="M0 0 C2.46996464 -0.00285368 4.93992754 -0.00823133 7.40988159 -0.01600647 C12.56941826 -0.02326252 17.7278393 -0.00229686 22.88720703 0.03930664 C29.48258508 0.09053545 36.07575274 0.07458225 42.67115974 0.03792667 C47.76554959 0.01646569 52.85942519 0.0289367 57.95379257 0.05169487 C60.3849286 0.05885021 62.81611644 0.05599276 65.24722672 0.04271126 C68.6505546 0.02956176 72.05060464 0.06178119 75.45361328 0.10571289 C76.4460907 0.09311432 77.43856812 0.08051575 78.46112061 0.0675354 C87.06027298 0.2615765 92.68493713 4.03259338 98.6796875 10.02734375 C98.5078125 11.91015625 98.5078125 11.91015625 97.9296875 14.15234375 C97.74921875 14.87679688 97.56875 15.60125 97.3828125 16.34765625 C96.81695326 18.50420868 96.23690938 20.65703662 95.65234375 22.80859375 C92.10152069 37.10893959 93.90532236 48.27456748 100.1796875 61.40234375 C106.99531686 75.67551277 109.22269391 90.74498852 104.7109375 106.16015625 C99.20438013 121.47005438 89.89683056 130.8942462 76.6796875 140.02734375 C75.88691406 140.58679688 75.09414062 141.14625 74.27734375 141.72265625 C67.79491232 146.0722942 60.89540909 149.64849761 53.9921875 153.27734375 C53.00565186 153.79723877 52.01911621 154.31713379 51.00268555 154.8527832 C34.00891426 163.66686109 34.00891426 163.66686109 25.6796875 162.02734375 C20.15839825 160.06679746 14.93065679 157.61618273 9.6796875 155.02734375 C8.60992676 154.50575684 8.60992676 154.50575684 7.51855469 153.97363281 C-2.80124583 148.89074599 -12.23862022 143.08269496 -21.3203125 136.02734375 C-21.8982959 135.58632324 -22.4762793 135.14530273 -23.07177734 134.69091797 C-34.59113799 125.82372635 -41.71864371 116.31385693 -45.3203125 102.02734375 C-45.86127494 97.71718001 -45.941508 93.4925854 -45.8828125 89.15234375 C-45.87330566 88.01265137 -45.86379883 86.87295898 -45.85400391 85.69873047 C-45.63622883 76.87821058 -44.34057509 69.96371705 -40.3203125 62.02734375 C-39.78148437 60.94195312 -39.24265625 59.8565625 -38.6875 58.73828125 C-37.67364954 56.72527382 -36.63319603 54.7252125 -35.5546875 52.74609375 C-33.07825503 47.29167286 -33.17044788 41.91106333 -33.5078125 36.02734375 C-33.54825684 35.28911377 -33.58870117 34.55088379 -33.63037109 33.7902832 C-34.08213847 27.47028826 -35.53552169 21.8908836 -37.578125 15.8828125 C-38.37056417 12.83400704 -38.45606538 11.8903394 -37.3203125 9.02734375 C-27.69217146 -2.03001831 -13.31580194 -0.11953352 0 0 Z " fill="#F9F9F9" transform="translate(45.3203125,-1.02734375)"/>
<path d="M0 0 C3 1 3 1 4 3 C4.33 2.01 4.66 1.02 5 0 C7.3125 -0.25 7.3125 -0.25 10 0 C11.04115841 1.30144802 12.03886134 2.63838689 13 4 C15.58498512 5.26847685 15.58498512 5.26847685 18 6 C18 6.66 18 7.32 18 8 C18.556875 7.649375 19.11375 7.29875 19.6875 6.9375 C22.53886783 5.78154007 24.08517222 6.19032562 27 7 C27.495 8.98 27.495 8.98 28 11 C29.32 10.67 30.64 10.34 32 10 C32 11.65 32 13.3 32 15 C33.32 14.67 34.64 14.34 36 14 C35.34 15.65 34.68 17.3 34 19 C35.65 18.67 37.3 18.34 39 18 C39.99 19.65 40.98 21.3 42 23 C41.01 23 40.02 23 39 23 C39 23.66 39 24.32 39 25 C38.34 25 37.68 25 37 25 C37 25.66 37 26.32 37 27 C38.98 26.34 40.96 25.68 43 25 C43 26.65 43 28.3 43 30 C43.99 30 44.98 30 46 30 C45.67 31.32 45.34 32.64 45 34 C45.66 34 46.32 34 47 34 C46.49396008 36.16874252 46.00016187 37.99967627 45 40 C45.99 40 46.98 40 48 40 C48 40.66 48 41.32 48 42 C40.25 43.125 40.25 43.125 38 42 C38.04640625 42.63164063 38.0928125 43.26328125 38.140625 43.9140625 C38.61141173 55.58284779 35.72902171 67.04217069 28 76 C22.29065701 82.05285118 17.024636 85.58226094 8.6640625 86.27734375 C-1.3126723 86.5432482 -9.54684252 85.0315988 -17 78 C-22.63465126 71.4262402 -28 62.91764839 -28 54 C-28.66 54 -29.32 54 -30 54 C-30 55.32 -30 56.64 -30 58 C-34.455 58.495 -34.455 58.495 -39 59 C-39.36666667 53.5 -39.36666667 53.5 -37.625 51.125 C-36 50 -36 50 -34 50 C-34.78130071 47.50447516 -34.78130071 47.50447516 -36 45 C-36.99 44.67 -37.98 44.34 -39 44 C-38.875 42.125 -38.875 42.125 -38 40 C-34.9375 38.75 -34.9375 38.75 -32 38 C-32 37.01 -32 36.02 -32 35 C-33.65 34.67 -35.3 34.34 -37 34 C-37 33.34 -37 32.68 -37 32 C-35.68 31.67 -34.36 31.34 -33 31 C-33.66 29.68 -34.32 28.36 -35 27 C-34.195625 27.433125 -34.195625 27.433125 -33.375 27.875 C-30.64719516 29.16711808 -27.87387282 30.08558592 -25 31 C-23.35 28.03 -21.7 25.06 -20 22 C-21.11375 22.20625 -22.2275 22.4125 -23.375 22.625 C-24.57125 22.74875 -25.7675 22.8725 -27 23 C-27.66 22.34 -28.32 21.68 -29 21 C-28.625 18.375 -28.625 18.375 -28 16 C-27.01 15.67 -26.02 15.34 -25 15 C-25.33 16.98 -25.66 18.96 -26 21 C-25.01 20.34 -24.02 19.68 -23 19 C-23.66 18.67 -24.32 18.34 -25 18 C-24.34938905 16.32700041 -23.67966676 14.66140763 -23 13 C-22.566875 11.88625 -22.566875 11.88625 -22.125 10.75 C-21 9 -21 9 -19 8.1875 C-17 8 -17 8 -15 9 C-14.7834375 8.0409375 -14.7834375 8.0409375 -14.5625 7.0625 C-14 5 -14 5 -13 4 C-10 3.875 -10 3.875 -7 4 C-6 5 -6 5 -5.75 7.375 C-6 10 -6 10 -7.3125 11.8125 C-9 13 -9 13 -12 13 C-12 13.99 -12 14.98 -12 16 C-11.46890625 15.72285156 -10.9378125 15.44570313 -10.390625 15.16015625 C-9.68421875 14.79792969 -8.9778125 14.43570312 -8.25 14.0625 C-7.55390625 13.70285156 -6.8578125 13.34320313 -6.140625 12.97265625 C-4.09775567 12.04441818 -2.18884624 11.46833422 0 11 C-0.99 10.67 -1.98 10.34 -3 10 C-5.29013653 6.5647952 -5.17842973 5.014669 -5 1 C-4.34 1 -3.68 1 -3 1 C-2.505 3.97 -2.505 3.97 -2 7 C-1.34 7 -0.68 7 0 7 C0 4.69 0 2.38 0 0 Z " fill="#474749" transform="translate(71,17)"/>
<path d="M0 0 C2.1613921 0.04019385 4.3228564 0.07668416 6.484375 0.109375 C11.74117799 0.19686315 16.99524643 0.33016261 22.25 0.5 C14.72579839 5.51613441 4.97110561 5.0977387 -3.75 4.5 C-5.59005537 4.00343711 -7.42420186 3.48416227 -9.25 2.9375 C-14.00787593 1.86359975 -16.5200366 3.12316468 -20.5 5.57836914 C-23.32232861 7.46715282 -26.04860078 9.44141549 -28.75 11.5 C-28.61722656 12.22445313 -28.48445313 12.94890625 -28.34765625 13.6953125 C-28.17105469 14.66210938 -27.99445312 15.62890625 -27.8125 16.625 C-27.63847656 17.57632812 -27.46445312 18.52765625 -27.28515625 19.5078125 C-27.10855469 20.49523437 -26.93195312 21.48265625 -26.75 22.5 C-26.57082031 23.41265625 -26.39164063 24.3253125 -26.20703125 25.265625 C-24.44492517 37.73591417 -24.71554104 49.26737938 -30.75 60.5 C-31.65800229 62.45272083 -32.5541053 64.41102428 -33.4375 66.375 C-34.03111328 67.63957031 -34.03111328 67.63957031 -34.63671875 68.9296875 C-39.35754195 79.82899159 -39.68709722 93.80363096 -36.125 105.1875 C-35.39055116 106.98281939 -34.60042735 108.75662393 -33.75 110.5 C-33.3375 111.36625 -32.925 112.2325 -32.5 113.125 C-23.3678686 130.14397215 -2.57720497 140.7531446 14.38476562 148.61962891 C16.24046518 149.49549967 18.06555554 150.4176684 19.890625 151.35546875 C21.01984375 151.91878906 22.1490625 152.48210937 23.3125 153.0625 C24.29347656 153.55878906 25.27445312 154.05507812 26.28515625 154.56640625 C31.46551077 156.19763778 36.07284403 154.87764771 40.875 152.625 C41.638125 152.26792969 42.40125 151.91085938 43.1875 151.54296875 C45.61863454 150.31358822 47.9200036 148.91026098 50.25 147.5 C51.84908203 146.82517578 51.84908203 146.82517578 53.48046875 146.13671875 C64.35539397 141.53154966 74.09165055 134.88116266 83.25 127.5 C84.09820312 126.81808594 84.94640625 126.13617188 85.8203125 125.43359375 C95.02799278 117.66936169 100.27936643 108.33507238 101.48193359 96.14990234 C102.43959608 80.60072624 98.90474855 69.1582799 91.73828125 55.53125 C86.26366318 44.38084679 88.61351088 28.75595994 91.59375 17.15234375 C92.3700901 14.47002308 92.3700901 14.47002308 92.25 11.5 C88.14933111 7.66285372 82.60363808 2.69472737 76.828125 2.359375 C75.28643694 2.76393144 73.758929 3.22476821 72.24609375 3.7265625 C68.04771368 4.81036857 64.00671791 4.80292025 59.6875 4.8125 C58.89585449 4.82917725 58.10420898 4.84585449 57.28857422 4.86303711 C51.46639443 4.86364069 46.65365638 3.63003189 41.25 1.5 C41.25 1.17 41.25 0.84 41.25 0.5 C47.75999579 0.32140699 54.2693523 0.19946894 60.78125 0.11547852 C62.99275315 0.08043937 65.20409606 0.03279203 67.41503906 -0.02807617 C89.63589509 -0.62417217 89.63589509 -0.62417217 96.71533203 5.78881836 C97.22177246 6.3535083 97.72821289 6.91819824 98.25 7.5 C99.24 8.49 99.24 8.49 100.25 9.5 C100.078125 11.3828125 100.078125 11.3828125 99.5 13.625 C99.31953125 14.34945313 99.1390625 15.07390625 98.953125 15.8203125 C98.38726576 17.97686493 97.80722188 20.12969287 97.22265625 22.28125 C93.67183319 36.58159584 95.47563486 47.74722373 101.75 60.875 C108.56562936 75.14816902 110.79300641 90.21764477 106.28125 105.6328125 C100.77469263 120.94271063 91.46714306 130.36690245 78.25 139.5 C77.45722656 140.05945313 76.66445312 140.61890625 75.84765625 141.1953125 C69.36522482 145.54495045 62.46572159 149.12115386 55.5625 152.75 C54.57596436 153.26989502 53.58942871 153.78979004 52.57299805 154.32543945 C35.57922676 163.13951734 35.57922676 163.13951734 27.25 161.5 C21.72871075 159.53945371 16.50096929 157.08883898 11.25 154.5 C10.18023926 153.97841309 10.18023926 153.97841309 9.08886719 153.44628906 C-1.23093333 148.36340224 -10.66830772 142.55535121 -19.75 135.5 C-20.3279834 135.05897949 -20.9059668 134.61795898 -21.50146484 134.16357422 C-33.02082549 125.2963826 -40.14833121 115.78651318 -43.75 101.5 C-44.29096244 97.18983626 -44.3711955 92.96524165 -44.3125 88.625 C-44.30299316 87.48530762 -44.29348633 86.34561523 -44.28369141 85.17138672 C-44.06591633 76.35086683 -42.77026259 69.4363733 -38.75 61.5 C-38.21117187 60.41460937 -37.67234375 59.32921875 -37.1171875 58.2109375 C-36.10333704 56.19793007 -35.06288353 54.19786875 -33.984375 52.21875 C-31.50794253 46.76432911 -31.60013538 41.38371958 -31.9375 35.5 C-31.97794434 34.76177002 -32.01838867 34.02354004 -32.06005859 33.26293945 C-32.51182597 26.94294451 -33.96520919 21.36353985 -36.0078125 15.35546875 C-36.80079608 12.30456878 -36.89316283 11.36327089 -35.75 8.5 C-26.18840643 -2.2537012 -13.10471587 -0.42506116 0 0 Z " fill="#484747" transform="translate(43.75,-0.5)"/>
<path d="M0 0 C5.91724894 0.35503494 8.89275936 1.7060666 13 6 C13.63802083 7.72265625 14.27604167 9.4453125 14.9140625 11.16796875 C19.44147645 18.80594408 31.12094961 23.12417885 39.375 25.25 C54.58748724 28.13016109 69.88736266 23.91371118 83.046875 16.1484375 C87.28115014 13.06794632 87.79065033 10.99864532 89 6 C91.4925189 2.384309 93.50701353 0.2824569 97.890625 -0.546875 C101 0 101 0 103.58984375 2.703125 C104.39363911 3.87107807 105.1757297 5.05421266 105.9375 6.25 C106.34806641 6.83652344 106.75863281 7.42304687 107.18164062 8.02734375 C108.7506202 10.38213603 109.98768649 12.25298013 110.03515625 15.1328125 C105.7552505 22.85279345 96.7774916 28.0453332 89.375 32.4375 C88.68341797 32.85016113 87.99183594 33.26282227 87.27929688 33.68798828 C71.37637948 42.78448706 51.88156032 44.86104965 34 42 C34.495 45.96 34.495 45.96 35 50 C32.36 50 29.72 50 27 50 C26.67 49.01 26.34 48.02 26 47 C25.01 47.495 25.01 47.495 24 48 C24 46.35 24 44.7 24 43 C25.32 43 26.64 43 28 43 C29.7511573 41.5833253 29.7511573 41.5833253 31 40 C30.26910156 39.86722656 29.53820313 39.73445313 28.78515625 39.59765625 C16.07029323 36.86922141 3.55764327 28.59722738 -4.8125 18.75 C-5.71935547 17.69039062 -5.71935547 17.69039062 -6.64453125 16.609375 C-7.09183594 16.07828125 -7.53914063 15.5471875 -8 15 C-6.62712658 11.30123909 -4.93644547 8.0485524 -2.875 4.6875 C-2.33617187 3.80449219 -1.79734375 2.92148438 -1.2421875 2.01171875 C-0.83226562 1.34785156 -0.42234375 0.68398437 0 0 Z " fill="#838584" transform="translate(25,84)"/>
<path d="M0 0 C1.32 0.33 2.64 0.66 4 1 C3.97679688 1.90363281 3.95359375 2.80726562 3.9296875 3.73828125 C3.91164063 4.91777344 3.89359375 6.09726562 3.875 7.3125 C3.85179688 8.48425781 3.82859375 9.65601563 3.8046875 10.86328125 C3.74679382 14.16393661 3.74679382 14.16393661 6 17 C6.61875 16.690625 7.2375 16.38125 7.875 16.0625 C11.86290072 14.06854964 14.47665981 13.91623444 19 14 C19.495 16.475 19.495 16.475 20 19 C17 21 17 21 13 21 C13.33 22.98 13.66 24.96 14 27 C15.11375 27.28875 16.2275 27.5775 17.375 27.875 C21 29 21 29 23 31 C23.4375 33.375 23.4375 33.375 23 36 C21.125 38.375 21.125 38.375 18 40 C13.04836123 40.34093251 9.18661286 39.76635414 5 37.0625 C4.34 36.381875 3.68 35.70125 3 35 C2.34 34.34 1.68 33.68 1 33 C5.42166167 40.55564666 5.42166167 40.55564666 12 46 C15.13648643 46.58668092 17.86991796 46.64356827 21 46 C24.1212377 43.73710267 24.83928038 41.98648594 25.453125 38.21875 C25.72174894 35.47595824 25.90354609 32.75375908 26 30 C27.546875 30.309375 27.546875 30.309375 29.125 30.625 C33.04546378 30.43682346 33.04546378 30.43682346 34.73046875 27.84375 C35.77566769 26.04755627 36.77959873 24.22663476 37.73828125 22.3828125 C39 20 39 20 41 18 C43.5 17.75 43.5 17.75 46 18 C48.46996424 20.46996424 48.32331778 21.33897333 48.375 24.75 C48.27736096 29.57615819 47.30064181 32.33262022 44 36 C41.38684121 38.00342174 40.26071099 38.0159619 36.9375 37.8125 C33.97847688 36.9940468 32.85744232 36.37339853 31 34 C31.34552388 36.55687669 31.75087013 38.57501375 33.0625 40.8125 C36.23822353 42.75891119 39.45556494 42.73813382 43 42 C45.54610751 39.98679872 47.31413807 37.89835289 49.2734375 35.33203125 C50.44852243 33.83290775 51.72033875 32.41090856 53 31 C54.32 31 55.64 31 57 31 C56.67974698 40.92784371 52.81614107 47.64448438 45.625 54.4375 C37.30368407 61.26843098 29.67000177 61.911006 19 61 C9.73731557 59.08204448 3.66368887 53.40933103 -1.421875 45.76953125 C-4.34508126 40.63944897 -7 34.97518524 -7 29 C-7.66 29 -8.32 29 -9 29 C-9 30.32 -9 31.64 -9 33 C-13.455 33.495 -13.455 33.495 -18 34 C-18.36666667 28.5 -18.36666667 28.5 -16.625 26.125 C-15 25 -15 25 -13 25 C-13.78130071 22.50447516 -13.78130071 22.50447516 -15 20 C-15.99 19.67 -16.98 19.34 -18 19 C-17.875 17.125 -17.875 17.125 -17 15 C-13.9375 13.75 -13.9375 13.75 -11 13 C-11 12.01 -11 11.02 -11 10 C-12.65 9.67 -14.3 9.34 -16 9 C-16 8.34 -16 7.68 -16 7 C-14.68 6.67 -13.36 6.34 -12 6 C-12.66 4.68 -13.32 3.36 -14 2 C-13.195625 2.433125 -13.195625 2.433125 -12.375 2.875 C-9.64719516 4.16711808 -6.87387282 5.08558592 -4 6 C-2.68 4.02 -1.36 2.04 0 0 Z " fill="#464749" transform="translate(50,42)"/>
<path d="M0 0 C1.32 0.33 2.64 0.66 4 1 C3.97679688 1.90363281 3.95359375 2.80726562 3.9296875 3.73828125 C3.91164063 4.91777344 3.89359375 6.09726562 3.875 7.3125 C3.85179688 8.48425781 3.82859375 9.65601563 3.8046875 10.86328125 C3.74679382 14.16393661 3.74679382 14.16393661 6 17 C6.61875 16.690625 7.2375 16.38125 7.875 16.0625 C11.86290072 14.06854964 14.47665981 13.91623444 19 14 C19.495 16.475 19.495 16.475 20 19 C17 21 17 21 13 21 C13.33 22.98 13.66 24.96 14 27 C15.11375 27.28875 16.2275 27.5775 17.375 27.875 C21 29 21 29 23 31 C23.4375 33.375 23.4375 33.375 23 36 C21.125 38.375 21.125 38.375 18 40 C13.04836123 40.34093251 9.18661286 39.76635414 5 37.0625 C4.34 36.381875 3.68 35.70125 3 35 C2.34 34.34 1.68 33.68 1 33 C2.98 36.3 4.96 39.6 7 43 C3.535 42.505 3.535 42.505 0 42 C-0.33 42.99 -0.66 43.98 -1 45 C-4.88704087 40.74276476 -7 34.72456601 -7 29 C-7.66 29 -8.32 29 -9 29 C-9 30.32 -9 31.64 -9 33 C-13.455 33.495 -13.455 33.495 -18 34 C-18.36666667 28.5 -18.36666667 28.5 -16.625 26.125 C-15 25 -15 25 -13 25 C-13.78130071 22.50447516 -13.78130071 22.50447516 -15 20 C-15.99 19.67 -16.98 19.34 -18 19 C-17.875 17.125 -17.875 17.125 -17 15 C-13.9375 13.75 -13.9375 13.75 -11 13 C-11 12.01 -11 11.02 -11 10 C-12.65 9.67 -14.3 9.34 -16 9 C-16 8.34 -16 7.68 -16 7 C-14.68 6.67 -13.36 6.34 -12 6 C-12.66 4.68 -13.32 3.36 -14 2 C-13.195625 2.433125 -13.195625 2.433125 -12.375 2.875 C-9.64719516 4.16711808 -6.87387282 5.08558592 -4 6 C-2.68 4.02 -1.36 2.04 0 0 Z " fill="#464748" transform="translate(50,42)"/>
<path d="M0 0 C3.68848367 1.79439746 6.47248541 4.44497081 8.3125 8.125 C8.54803948 12.36471058 8.64095886 15.48678302 6.3125 19.125 C6.9725 19.785 7.6325 20.445 8.3125 21.125 C10.84219899 21.22395359 10.84219899 21.22395359 13.3125 20.125 C14.89885379 17.71170585 14.89885379 17.71170585 15.9375 14.75 C18.4557746 8.34445589 18.4557746 8.34445589 21.3125 6.125 C24.45808708 5.48158446 26.3876977 5.55362533 29.15234375 7.26171875 C34.06346838 11.21761406 36.90553035 15.04365834 37.75 21.4375 C37.04272675 27.3988031 35.03080448 32.16804212 31.0625 36.6875 C27.38149657 38.61166089 24.37013215 39.21900947 20.3125 38.125 C17.83077206 36.31479844 16.94188909 34.85816879 15.3125 32.125 C15.5 29.75 15.5 29.75 16.3125 28.125 C17.01375 28.805625 17.715 29.48625 18.4375 30.1875 C21.15795148 32.41024812 21.15795148 32.41024812 24.375 32.125 C28.31583325 30.78343974 30.45456022 28.84087956 32.3125 25.125 C32.40784254 23.4396804 32.44235758 21.75050734 32.4375 20.0625 C32.44007812 19.16402344 32.44265625 18.26554687 32.4453125 17.33984375 C32.55988223 15.15121107 32.55988223 15.15121107 31.3125 14.125 C28.98734501 13.37157483 28.98734501 13.37157483 26.3125 14.125 C24.30599722 16.59499319 22.82990573 19.33510314 21.3125 22.125 C19.875 24.625 19.875 24.625 18.3125 26.125 C15.125 26.375 15.125 26.375 12.3125 26.125 C12.29123047 27.10339844 12.29123047 27.10339844 12.26953125 28.1015625 C12.03610747 32.37889547 11.82138724 36.16341205 9.3125 39.75 C5.8336989 42.50405087 4.01211618 43.07834813 -0.34375 42.7734375 C-6.19073686 41.15577113 -10.17257769 36.32911993 -13.25 31.3125 C-13.724375 30.260625 -14.19875 29.20875 -14.6875 28.125 C-14.3575 27.465 -14.0275 26.805 -13.6875 26.125 C-13.171875 26.888125 -12.65625 27.65125 -12.125 28.4375 C-8.51206089 32.42099696 -4.80284578 33.87613579 0.5 34.5 C3.73317167 34.06891044 5.13312216 33.55584451 7.3125 31.125 C7.81264953 28.58241537 7.81264953 28.58241537 7.3125 26.125 C4.6269406 23.4394406 1.93628672 23.06450026 -1.6875 22.125 C-1.6875 20.145 -1.6875 18.165 -1.6875 16.125 C0.2925 15.465 2.2725 14.805 4.3125 14.125 C4.3125 12.805 4.3125 11.485 4.3125 10.125 C-0.61848331 9.84052019 -2.88844371 10.00434662 -6.6875 13.125 C-9.6875 12.125 -9.6875 12.125 -11.6875 9.125 C-11.4995113 6.43571718 -11.01888251 5.42618644 -9.015625 3.60546875 C-3.48095432 0.16190485 -3.48095432 0.16190485 0 0 Z " fill="#F1F2F2" transform="translate(64.6875,46.875)"/>
<path d="M0 0 C2.01605431 2.10423769 3.40197013 3.83960522 4.9375 6.25 C5.34806641 6.83652344 5.75863281 7.42304687 6.18164062 8.02734375 C7.7506202 10.38213603 8.98768649 12.25298013 9.03515625 15.1328125 C4.73024185 22.89790338 -4.30578132 28.09155576 -11.75 32.5 C-12.45833984 32.92104004 -13.16667969 33.34208008 -13.89648438 33.77587891 C-18.19149129 36.22973809 -22.18950006 37.84145028 -27 39 C-27 38.34 -27 37.68 -27 37 C-28.32 37 -29.64 37 -31 37 C-30.814375 36.401875 -30.62875 35.80375 -30.4375 35.1875 C-29.77906313 32.83591238 -29.77906313 32.83591238 -31 30 C-29.02 29.34 -27.04 28.68 -25 28 C-24.34 29.65 -23.68 31.3 -23 33 C-22.34 33 -21.68 33 -21 33 C-21.66 32.01 -22.32 31.02 -23 30 C-23 29.01 -23 28.02 -23 27 C-22.34 27 -21.68 27 -21 27 C-21 27.99 -21 28.98 -21 30 C-20.34 30 -19.68 30 -19 30 C-19.495 27.525 -19.495 27.525 -20 25 C-17.525 26.98 -17.525 26.98 -15 29 C-15.66 27.35 -16.32 25.7 -17 24 C-16.01 24 -15.02 24 -14 24 C-14 24.66 -14 25.32 -14 26 C-13.01 26 -12.02 26 -11 26 C-11 25.34 -11 24.68 -11 24 C-9.68 24.33 -8.36 24.66 -7 25 C-8.32 23.02 -9.64 21.04 -11 19 C-12.3921875 19.99 -12.3921875 19.99 -13.8125 21 C-17 23 -17 23 -20 23 C-20.33 22.01 -20.66 21.02 -21 20 C-21.33 21.65 -21.66 23.3 -22 25 C-24.74747826 25.87919304 -26.67858314 25.97660058 -29.625 25.875 C-31.295625 25.936875 -31.295625 25.936875 -33 26 C-33.66 26.99 -34.32 27.98 -35 29 C-37.475 28.01 -37.475 28.01 -40 27 C-40 27.66 -40 28.32 -40 29 C-39.01 29.33 -38.02 29.66 -37 30 C-41.53701494 31.45184478 -45.18061476 32.23509196 -50 32 C-49.01 31.34 -48.02 30.68 -47 30 C-46.27617533 27.94074861 -46.27617533 27.94074861 -46 26 C-44.52853516 25.70609375 -44.52853516 25.70609375 -43.02734375 25.40625 C-26.45846764 21.94051263 -26.45846764 21.94051263 -13.609375 11.9140625 C-12.97000302 9.97364289 -12.48042426 7.98575359 -12 6 C-8.73670342 1.26620558 -5.97399579 -1.05070278 0 0 Z " fill="#8A8C8B" transform="translate(126,84)"/>
<path d="M0 0 C3 1 3 1 4 3 C4.33 2.01 4.66 1.02 5 0 C7.3125 -0.25 7.3125 -0.25 10 0 C11.04115841 1.30144802 12.03886134 2.63838689 13 4 C15.58498512 5.26847685 15.58498512 5.26847685 18 6 C18 6.66 18 7.32 18 8 C18.556875 7.649375 19.11375 7.29875 19.6875 6.9375 C22.53886783 5.78154007 24.08517222 6.19032562 27 7 C27.495 8.98 27.495 8.98 28 11 C29.32 10.67 30.64 10.34 32 10 C32 11.65 32 13.3 32 15 C33.32 14.67 34.64 14.34 36 14 C35.34 15.65 34.68 17.3 34 19 C35.65 18.67 37.3 18.34 39 18 C39.99 19.65 40.98 21.3 42 23 C41.01 23 40.02 23 39 23 C39 23.66 39 24.32 39 25 C38.34 25 37.68 25 37 25 C37 25.66 37 26.32 37 27 C38.98 26.34 40.96 25.68 43 25 C43 26.65 43 28.3 43 30 C43.99 30 44.98 30 46 30 C45.67 31.32 45.34 32.64 45 34 C45.66 34 46.32 34 47 34 C46.49396008 36.16874252 46.00016187 37.99967627 45 40 C45.99 40 46.98 40 48 40 C48 40.66 48 41.32 48 42 C46.741875 42.185625 45.48375 42.37125 44.1875 42.5625 C43.12595703 42.71912109 43.12595703 42.71912109 42.04296875 42.87890625 C40 43 40 43 37 42 C36.04296875 39.55859375 36.04296875 39.55859375 35.1875 36.4375 C32.10451861 26.65540867 26.60606436 20.53781533 18 15 C14.08204005 13.0571566 10.84650859 12.78397624 6.5 12.6875 C2.1708405 12.40313845 0.3711884 12.24512442 -3.3125 9.8125 C-5.25681348 6.57197753 -5.43208895 4.71596496 -5 1 C-4.34 1 -3.68 1 -3 1 C-2.67 2.98 -2.34 4.96 -2 7 C-1.34 7 -0.68 7 0 7 C0 4.69 0 2.38 0 0 Z " fill="#E8E8E8" transform="translate(71,17)"/>
<path d="M0 0 C0.33 0.99 0.66 1.98 1 3 C0.01 4.485 0.01 4.485 -1 6 C-0.01 6 0.98 6 2 6 C2 6.66 2 7.32 2 8 C4.97 8.33 7.94 8.66 11 9 C10.34 8.67 9.68 8.34 9 8 C9 7.34 9 6.68 9 6 C12.81684226 7.55500981 15.19195732 10.03595495 18 13 C17.34 13 16.68 13 16 13 C16 13.99 16 14.98 16 16 C16.71542969 15.62101562 17.43085937 15.24203125 18.16796875 14.8515625 C21 14 21 14 23.67578125 14.8984375 C24.54589844 15.38570312 25.41601562 15.87296875 26.3125 16.375 C27.19550781 16.85710937 28.07851563 17.33921875 28.98828125 17.8359375 C29.65214844 18.22007813 30.31601562 18.60421875 31 19 C30.34 17.68 29.68 16.36 29 15 C29.99 15.33 30.98 15.66 32 16 C32.6875 18.8125 32.6875 18.8125 33 22 C31.8125 23.5625 31.8125 23.5625 30 25 C28.65263027 26.65533995 27.31665664 28.32012773 26 30 C21.40280061 28.67085442 17.88134286 26.82207964 13.9375 24.125 C12.43509766 23.10792969 12.43509766 23.10792969 10.90234375 22.0703125 C6.52348634 18.94676684 2.67726227 15.85560267 -0.8125 11.75 C-1.41707031 11.04359375 -2.02164062 10.3371875 -2.64453125 9.609375 C-3.09183594 9.07828125 -3.53914063 8.5471875 -4 8 C-2.87548273 5.0280615 -1.77706209 2.66559313 0 0 Z " fill="#888988" transform="translate(21,91)"/>
<path d="M0 0 C3.33333333 1.66666667 6.66666667 3.33333333 10 5 C9.690625 6.216875 9.38125 7.43375 9.0625 8.6875 C7.70131794 14.73076221 7.36241197 20.82945928 7 27 C6.34 27 5.68 27 5 27 C5 28.32 5 29.64 5 31 C2.03 31.33 -0.94 31.66 -4 32 C-4.36666667 26.5 -4.36666667 26.5 -2.625 24.125 C-1 23 -1 23 1 23 C0.21869929 20.50447516 0.21869929 20.50447516 -1 18 C-1.99 17.67 -2.98 17.34 -4 17 C-3.875 15.125 -3.875 15.125 -3 13 C0.0625 11.75 0.0625 11.75 3 11 C3 10.01 3 9.02 3 8 C1.35 7.67 -0.3 7.34 -2 7 C-2 6.34 -2 5.68 -2 5 C-0.68 4.67 0.64 4.34 2 4 C1.34 2.68 0.68 1.36 0 0 Z " fill="#DCDCDC" transform="translate(36,44)"/>
<path d="M0 0 C2.49349318 1.24674659 3.46640071 2.69960106 5 5 C5 5.66 5 6.32 5 7 C3.68 6.67 2.36 6.34 1 6 C1 6.66 1 7.32 1 8 C0.01 8 -0.98 8 -2 8 C-2.66 7.34 -3.32 6.68 -4 6 C-3.34 7.98 -2.68 9.96 -2 12 C-5 11 -5 11 -7 8 C-7 9.32 -7 10.64 -7 12 C-7.66 12 -8.32 12 -9 12 C-9 11.01 -9 10.02 -9 9 C-9.66 9 -10.32 9 -11 9 C-10.34 10.98 -9.68 12.96 -9 15 C-11 15 -11 15 -13.125 13 C-13.74375 12.34 -14.3625 11.68 -15 11 C-15.99 11.66 -16.98 12.32 -18 13 C-17.67 14.65 -17.34 16.3 -17 18 C-18.5 16.625 -18.5 16.625 -20 15 C-20 14.34 -20 13.68 -20 13 C-20.66 13 -21.32 13 -22 13 C-21.67 14.98 -21.34 16.96 -21 19 C-21.99 17.68 -22.98 16.36 -24 15 C-24.33 16.65 -24.66 18.3 -25 20 C-27.31 19.34 -29.62 18.68 -32 18 C-32.33 18.99 -32.66 19.98 -33 21 C-34.32 20.67 -35.64 20.34 -37 20 C-37.33 18.68 -37.66 17.36 -38 16 C-37.01 16 -36.02 16 -35 16 C-36.32 15.34 -37.64 14.68 -39 14 C-35.04 13.34 -31.08 12.68 -27 12 C-27.33 11.01 -27.66 10.02 -28 9 C-26.35 9.33 -24.7 9.66 -23 10 C-22.34 9.01 -21.68 8.02 -21 7 C-18.6171875 6.70703125 -18.6171875 6.70703125 -15.875 6.8125 C-14.96492188 6.83957031 -14.05484375 6.86664063 -13.1171875 6.89453125 C-12.41851562 6.92933594 -11.71984375 6.96414062 -11 7 C-10.34 5.35 -9.68 3.7 -9 2 C-8.34 2.33 -7.68 2.66 -7 3 C-7.33 3.66 -7.66 4.32 -8 5 C-6.865625 4.360625 -5.73125 3.72125 -4.5625 3.0625 C-3.60537109 2.52302734 -3.60537109 2.52302734 -2.62890625 1.97265625 C-1.02121854 1.1027487 -1.02121854 1.1027487 0 0 Z " fill="#D5D7D6" transform="translate(114,102)"/>
<path d="M0 0 C2.51033417 1.1336993 2.96441202 2.36118938 3.9375 4.875 C2.9475 4.875 1.9575 4.875 0.9375 4.875 C0.9375 5.535 0.9375 6.195 0.9375 6.875 C0.2775 6.875 -0.3825 6.875 -1.0625 6.875 C-1.0625 7.535 -1.0625 8.195 -1.0625 8.875 C0.9175 8.215 2.8975 7.555 4.9375 6.875 C4.9375 8.525 4.9375 10.175 4.9375 11.875 C5.9275 11.875 6.9175 11.875 7.9375 11.875 C7.6075 13.195 7.2775 14.515 6.9375 15.875 C7.5975 15.875 8.2575 15.875 8.9375 15.875 C8.43146008 18.04374252 7.93766187 19.87467627 6.9375 21.875 C7.9275 21.875 8.9175 21.875 9.9375 21.875 C9.9375 22.535 9.9375 23.195 9.9375 23.875 C8.679375 24.060625 7.42125 24.24625 6.125 24.4375 C5.41730469 24.54191406 4.70960937 24.64632812 3.98046875 24.75390625 C1.9375 24.875 1.9375 24.875 -1.0625 23.875 C-2.16015625 21.328125 -2.16015625 21.328125 -3.125 18.125 C-4.51560844 13.58068465 -4.51560844 13.58068465 -6.2265625 9.15234375 C-7.0625 6.875 -7.0625 6.875 -6.375 4.1875 C-4.77677412 1.37157821 -3.40040352 -0.20608506 0 0 Z " fill="#D7D7D7" transform="translate(109.0625,35.125)"/>
<path d="M0 0 C3 0.125 3 0.125 4 1.125 C4.30392154 4.01225465 4.41849029 5.54708484 2.6875 7.9375 C1 9.125 1 9.125 -2 9.125 C-2.309375 10.4553125 -2.309375 10.4553125 -2.625 11.8125 C-4.38304358 16.04778682 -6.35373333 17.42993333 -10 20.125 C-10 19.465 -10 18.805 -10 18.125 C-11.11375 18.33125 -12.2275 18.5375 -13.375 18.75 C-14.57125 18.87375 -15.7675 18.9975 -17 19.125 C-17.66 18.465 -18.32 17.805 -19 17.125 C-18.625 14.5 -18.625 14.5 -18 12.125 C-17.01 11.795 -16.02 11.465 -15 11.125 C-15.33 13.105 -15.66 15.085 -16 17.125 C-15.01 16.465 -14.02 15.805 -13 15.125 C-13.66 14.795 -14.32 14.465 -15 14.125 C-14.34938905 12.45200041 -13.67966676 10.78640763 -13 9.125 C-12.71125 8.3825 -12.4225 7.64 -12.125 6.875 C-11 5.125 -11 5.125 -9 4.3125 C-7 4.125 -7 4.125 -5 5.125 C-4.855625 4.485625 -4.71125 3.84625 -4.5625 3.1875 C-3.68151674 -0.04277196 -3.502924 0.14595517 0 0 Z " fill="#DFDFE0" transform="translate(61,20.875)"/>
<path d="M0 0 C4.29 0.66 8.58 1.32 13 2 C13 2.66 13 3.32 13 4 C12.34 4 11.68 4 11 4 C11.185625 5.11375 11.37125 6.2275 11.5625 7.375 C12 11 12 11 11 13 C14.96 13 18.92 13 23 13 C23 13.33 23 13.66 23 14 C15.58165418 14.09377123 8.33763707 14.17402193 1 13 C1.33 15.64 1.66 18.28 2 21 C-0.64 21 -3.28 21 -6 21 C-6.33 20.01 -6.66 19.02 -7 18 C-7.66 18.33 -8.32 18.66 -9 19 C-9 17.35 -9 15.7 -9 14 C-7.68 14 -6.36 14 -5 14 C-3.2488427 12.5833253 -3.2488427 12.5833253 -2 11 C-2.99 10.67 -3.98 10.34 -5 10 C-3.02 10 -1.04 10 1 10 C1.33 9.34 1.66 8.68 2 8 C1.34 7.67 0.68 7.34 0 7 C0 6.01 0 5.02 0 4 C0.66 4 1.32 4 2 4 C2 3.34 2 2.68 2 2 C1.34 2 0.68 2 0 2 C0 1.34 0 0.68 0 0 Z " fill="#969897" transform="translate(58,113)"/>
<path d="M0 0 C2.875 0.75 2.875 0.75 5.3125 3.25 C7.33291433 7.7757281 6.86481623 9.96588821 5.875 14.75 C3.565 15.08 1.255 15.41 -1.125 15.75 C-1.125 15.09 -1.125 14.43 -1.125 13.75 C-4.52812738 14.80875074 -7.13853231 15.75902154 -10.125 17.75 C-10.125 17.09 -10.125 16.43 -10.125 15.75 C-10.785 15.42 -11.445 15.09 -12.125 14.75 C-10.00199517 7.90920666 -7.50067611 1.80016227 0 0 Z M-13.125 15.75 C-12.465 16.41 -11.805 17.07 -11.125 17.75 C-12.115 18.245 -12.115 18.245 -13.125 18.75 C-13.125 17.76 -13.125 16.77 -13.125 15.75 Z " fill="#828483" transform="translate(123.125,83.25)"/>
<path d="M0 0 C6.16411455 0.36984687 8.80005946 1.70238643 13 6 C14.375 8.8125 14.375 8.8125 15 11 C14.360625 11.12375 13.72125 11.2475 13.0625 11.375 C12.381875 11.58125 11.70125 11.7875 11 12 C10.67 12.66 10.34 13.32 10 14 C8.35 13.67 6.7 13.34 5 13 C5 13.66 5 14.32 5 15 C5.99 15.33 6.98 15.66 8 16 C5.45297384 17.27351308 4.5717055 16.80191925 1.875 16.0625 C1.15054687 15.86785156 0.42609375 15.67320313 -0.3203125 15.47265625 C-0.87460937 15.31667969 -1.42890625 15.16070312 -2 15 C-2 14.34 -2 13.68 -2 13 C-2.99 13 -3.98 13 -5 13 C-4.54554036 11.58208592 -4.08625056 10.16571954 -3.625 8.75 C-3.24214844 7.56664063 -3.24214844 7.56664063 -2.8515625 6.359375 C-2.04826333 4.13372042 -1.10288338 2.09068328 0 0 Z " fill="#838584" transform="translate(25,84)"/>
<path d="M0 0 C15.51 0 31.02 0 47 0 C47.495 0.99 47.495 0.99 48 2 C47.01 2.99 46.02 3.98 45 5 C45.70125 5.226875 46.4025 5.45375 47.125 5.6875 C50.69343613 7.31656867 53.06514511 9.40640731 56 12 C55.54625 12.37125 55.0925 12.7425 54.625 13.125 C52.52970606 15.54264685 51.87986715 17.95430602 51 21 C49.75696384 17.40900664 50.31883985 14.68331043 51 11 C44.0068116 4.82265146 44.0068116 4.82265146 35.578125 1.84765625 C34.03738345 2.26015975 32.50999327 2.72441521 30.99609375 3.2265625 C26.79771368 4.31036857 22.75671791 4.30292025 18.4375 4.3125 C17.64585449 4.32917725 16.85420898 4.34585449 16.03857422 4.36303711 C10.21639443 4.36364069 5.40365638 3.13003189 0 1 C0 0.67 0 0.34 0 0 Z " fill="#434345" transform="translate(85,0)"/>
<path d="M0 0 C0.66 0 1.32 0 2 0 C0.58956521 3.36165806 -1.01526034 5.09505232 -3.9375 7.25 C-4.62714844 7.77078125 -5.31679687 8.2915625 -6.02734375 8.828125 C-8 10 -8 10 -11 10 C-11.33 9.01 -11.66 8.02 -12 7 C-12.33 8.65 -12.66 10.3 -13 12 C-15.74747826 12.87919304 -17.67858314 12.97660058 -20.625 12.875 C-22.295625 12.936875 -22.295625 12.936875 -24 13 C-24.99 14.485 -24.99 14.485 -26 16 C-28.475 15.01 -28.475 15.01 -31 14 C-31 14.66 -31 15.32 -31 16 C-30.01 16.33 -29.02 16.66 -28 17 C-32.53701494 18.45184478 -36.18061476 19.23509196 -41 19 C-40.01 18.34 -39.02 17.68 -38 17 C-37.27617533 14.94074861 -37.27617533 14.94074861 -37 13 C-36.00742188 12.79246094 -35.01484375 12.58492187 -33.9921875 12.37109375 C-25.15237634 10.40596182 -17.58016018 7.67435879 -9.59765625 3.390625 C-6.11104245 1.52410694 -6.3063784 2 -2 2 C-1.34 1.34 -0.68 0.68 0 0 Z " fill="#8A8C8B" transform="translate(117,97)"/>
<path d="M0 0 C4.75 0.75 4.75 0.75 7 3 C9.10898869 3.24295974 9.10898869 3.24295974 11.4375 3.125 C12.21996094 3.10695312 13.00242187 3.08890625 13.80859375 3.0703125 C14.53175781 3.04710937 15.25492188 3.02390625 16 3 C16.99 3 17.98 3 19 3 C18.2575 3.61875 17.515 4.2375 16.75 4.875 C13.57212198 7.99886309 12.35366774 11.65150476 10.89453125 15.79296875 C10 18 10 18 8 20 C5.5 19.8125 5.5 19.8125 3 19 C2.34 18.01 1.68 17.02 1 16 C1.66 15.01 2.32 14.02 3 13 C3.4956328 7.74629229 2.6553906 4.53629227 0 0 Z " fill="#4A4C4B" transform="translate(69,49)"/>
<path d="M0 0 C5.04834758 5.04834758 4.94078275 13.24183175 5 20 C4.84627468 22.97087898 4.57367198 25.91813495 4.25 28.875 C4.17620117 29.58825439 4.10240234 30.30150879 4.02636719 31.03637695 C3.45675573 35.58206843 2.18211717 38.99945185 0 43 C-0.165 43.9075 -0.33 44.815 -0.5 45.75 C-1 48 -1 48 -4 50 C-4.35268934 51.6626783 -4.68033861 53.33065717 -5 55 C-6.23650316 58.04527225 -7.60599512 61.02396167 -9 64 C-9.33 64 -9.66 64 -10 64 C-10.47420089 52.99575 -5.40081247 43.19942907 -0.234375 33.71875 C2.33789798 28.05323737 2.05559877 22.67491276 1.625 16.625 C1.58117188 15.90828125 1.53734375 15.1915625 1.4921875 14.453125 C1.17719407 9.60572611 0.64125156 4.81482106 0 0 Z " fill="#4A3E3D" transform="translate(10,18)"/>
<path d="M0 0 C2.2818836 1.98744701 3.80513351 3.51283378 4.9375 6.34375 C5 9 5 9 2.91015625 11.45703125 C1.97042969 12.23433594 1.03070313 13.01164062 0.0625 13.8125 C-0.87464844 14.60269531 -1.81179687 15.39289063 -2.77734375 16.20703125 C-3.51082031 16.79871094 -4.24429688 17.39039062 -5 18 C-5.99 17.34 -6.98 16.68 -8 16 C-9.03125 15.67 -10.0625 15.34 -11.125 15 C-14 14 -14 14 -15 12 C-13.38405168 9.95880212 -11.7143618 7.95927063 -10 6 C-9.34 6 -8.68 6 -8 6 C-8 6.66 -8 7.32 -8 8 C-6.68 8 -5.36 8 -4 8 C-3.67 7.34 -3.34 6.68 -3 6 C-2.34 6.33 -1.68 6.66 -1 7 C-0.67 4.69 -0.34 2.38 0 0 Z " fill="#8D8E8D" transform="translate(130,91)"/>
<path d="M0 0 C3.27356545 1.59254535 5.10204483 3.21983035 7.3125 6.125 C7.625 9.9375 7.625 9.9375 7.3125 13.125 C6.9825 12.135 6.6525 11.145 6.3125 10.125 C-0.76590213 9.6220591 -0.76590213 9.6220591 -6.6875 13.125 C-9.6875 12.125 -9.6875 12.125 -11.6875 9.125 C-11.4995113 6.43571718 -11.01888251 5.42618644 -9.015625 3.60546875 C-3.48095432 0.16190485 -3.48095432 0.16190485 0 0 Z " fill="#F4F5F5" transform="translate(64.6875,46.875)"/>
<path d="M0 0 C3.81684226 1.55500981 6.19195732 4.03595495 9 7 C8.34 7 7.68 7 7 7 C7 7.99 7 8.98 7 10 C7.71542969 9.62101562 8.43085937 9.24203125 9.16796875 8.8515625 C12 8 12 8 14.67578125 8.8984375 C15.54589844 9.38570312 16.41601562 9.87296875 17.3125 10.375 C18.19550781 10.85710937 19.07851563 11.33921875 19.98828125 11.8359375 C20.65214844 12.22007813 21.31601562 12.60421875 22 13 C21.34 11.68 20.68 10.36 20 9 C20.99 9.33 21.98 9.66 23 10 C23.6875 12.8125 23.6875 12.8125 24 16 C22.625 17.75 22.625 17.75 21 19 C20.67 19.66 20.34 20.32 20 21 C19.34 21 18.68 21 18 21 C19.875 16.25 19.875 16.25 21 14 C19.29159719 15.63412443 18.06546953 16.86906094 17 19 C16.34 19 15.68 19 15 19 C15 18.01 15 17.02 15 16 C14.34 15.67 13.68 15.34 13 15 C13 15.99 13 16.98 13 18 C12.34 18 11.68 18 11 18 C11 16.02 11 14.04 11 12 C11.66 11.67 12.32 11.34 13 11 C10.07120629 11.62759865 7.63904371 12.58622659 5 14 C5.33 13.34 5.66 12.68 6 12 C5.01 11.67 4.02 11.34 3 11 C3 10.01 3 9.02 3 8 C3.99 8 4.98 8 6 8 C6 7.01 6 6.02 6 5 C3.69 6.32 1.38 7.64 -1 9 C-0.67 7.68 -0.34 6.36 0 5 C-0.99 5.66 -1.98 6.32 -3 7 C-3 5.68 -3 4.36 -3 3 C-1.35 3 0.3 3 2 3 C1.34 2.67 0.68 2.34 0 2 C0 1.34 0 0.68 0 0 Z " fill="#E0E2E1" transform="translate(30,97)"/>
<path d="M0 0 C3.59272061 0.60013843 5.5508269 2.04989689 8.3125 4.375 C12.08789309 7.41906694 15.45391627 9.35567184 20 11 C19.34 12.65 18.68 14.3 18 16 C17.34 15.01 16.68 14.02 16 13 C16 13.66 16 14.32 16 15 C12.92064178 13.97354726 9.85463684 12.9458451 6.8125 11.8125 C3.95653908 10.69943046 3.95653908 10.69943046 1 12 C1.268125 11.443125 1.53625 10.88625 1.8125 10.3125 C1.874375 9.549375 1.93625 8.78625 2 8 C-0.35426499 5.22877725 -0.35426499 5.22877725 -3 3 C-2.34 3 -1.68 3 -1 3 C-0.67 2.01 -0.34 1.02 0 0 Z " fill="#8F8F8F" transform="translate(36,95)"/>
<path d="M0 0 C3.33333333 1.66666667 6.66666667 3.33333333 10 5 C9.34 7.97 8.68 10.94 8 14 C7.67 13.34 7.34 12.68 7 12 C6.34 12 5.68 12 5 12 C5 12.66 5 13.32 5 14 C4.34 14 3.68 14 3 14 C3.33 16.97 3.66 19.94 4 23 C3.34 23 2.68 23 2 23 C2 22.01 2 21.02 2 20 C0.02 19.01 -1.96 18.02 -4 17 C-3.875 15.125 -3.875 15.125 -3 13 C0.0625 11.75 0.0625 11.75 3 11 C3 10.01 3 9.02 3 8 C1.35 7.67 -0.3 7.34 -2 7 C-2 6.34 -2 5.68 -2 5 C-0.68 4.67 0.64 4.34 2 4 C1.34 2.68 0.68 1.36 0 0 Z " fill="#D7D7D7" transform="translate(36,44)"/>
<path d="M0 0 C1.6875 2.3125 1.6875 2.3125 3 5 C2 8 2 8 -1 10 C-4.89145938 10.77087957 -8.53524539 10.97054879 -11.921875 8.7265625 C-13.5625 7.125 -13.5625 7.125 -16 4 C-16 3.34 -16 2.68 -16 2 C-15.32453125 2.10699219 -14.6490625 2.21398438 -13.953125 2.32421875 C-13.06109375 2.44410156 -12.1690625 2.56398437 -11.25 2.6875 C-9.92742187 2.87892578 -9.92742187 2.87892578 -8.578125 3.07421875 C-4.82608385 2.96620544 -3.49748819 0 0 0 Z " fill="#EBECEC" transform="translate(86,43)"/>
<path d="M0 0 C2.625 0.375 2.625 0.375 5 1 C5.33 2.32 5.66 3.64 6 5 C7.32 4.67 8.64 4.34 10 4 C10 5.65 10 7.3 10 9 C11.32 8.67 12.64 8.34 14 8 C12.84826645 10.46800047 11.95216435 12.04783565 10 14 C9.01 13.67 8.02 13.34 7 13 C7.66 12.01 8.32 11.02 9 10 C7.02 10.33 5.04 10.66 3 11 C3 10.34 3 9.68 3 9 C2.360625 8.773125 1.72125 8.54625 1.0625 8.3125 C-1 7 -1 7 -1.875 4.5 C-1.91625 3.675 -1.9575 2.85 -2 2 C-1.34 1.34 -0.68 0.68 0 0 Z " fill="#E0E0E0" transform="translate(93,23)"/>
<path d="M0 0 C2.49349318 1.24674659 3.46640071 2.69960106 5 5 C5 5.66 5 6.32 5 7 C3.68 6.67 2.36 6.34 1 6 C1 6.66 1 7.32 1 8 C0.01 8 -0.98 8 -2 8 C-2.66 7.34 -3.32 6.68 -4 6 C-3.34 7.98 -2.68 9.96 -2 12 C-5 11 -5 11 -7 8 C-7 9.32 -7 10.64 -7 12 C-7.66 12 -8.32 12 -9 12 C-9 11.01 -9 10.02 -9 9 C-9.66 9 -10.32 9 -11 9 C-10.34 10.98 -9.68 12.96 -9 15 C-9.66 15 -10.32 15 -11 15 C-13.29648649 12.4385343 -14 11.52032428 -14 8 C-13.360625 7.7525 -12.72125 7.505 -12.0625 7.25 C-9.81258459 6.18437567 -9.81258459 6.18437567 -9.25 3.875 C-9.1675 3.25625 -9.085 2.6375 -9 2 C-8.34 2.33 -7.68 2.66 -7 3 C-7.33 3.66 -7.66 4.32 -8 5 C-6.865625 4.360625 -5.73125 3.72125 -4.5625 3.0625 C-3.92441406 2.70285156 -3.28632812 2.34320313 -2.62890625 1.97265625 C-1.02121854 1.1027487 -1.02121854 1.1027487 0 0 Z " fill="#E8EAE9" transform="translate(114,102)"/>
<path d="M0 0 C-0.50603992 2.16874252 -0.99983813 3.99967627 -2 6 C-1.01 6 -0.02 6 1 6 C1 6.66 1 7.32 1 8 C-0.258125 8.185625 -1.51625 8.37125 -2.8125 8.5625 C-3.87404297 8.71912109 -3.87404297 8.71912109 -4.95703125 8.87890625 C-7 9 -7 9 -10 8 C-10.33 5.36 -10.66 2.72 -11 0 C-7.01803543 -1.05404945 -4.01804691 -0.84098656 0 0 Z " fill="#E2E3E4" transform="translate(118,51)"/>
<path d="M0 0 C1.79959084 2.69938626 3.21688283 5.36517289 4.6875 8.25 C7.46778143 13.40752451 10.63667961 17.14273481 15 21 C15.66 21.66 16.32 22.32 17 23 C14.33333333 23 11.66666667 23 9 23 C6.19744677 20.0936485 6 19.21174952 6 15 C5.38125 14.731875 4.7625 14.46375 4.125 14.1875 C2 13 2 13 0 10 C-0.1953125 7.51953125 -0.1953125 7.51953125 -0.125 4.8125 C-0.10695313 3.91144531 -0.08890625 3.01039062 -0.0703125 2.08203125 C-0.04710937 1.39496094 -0.02390625 0.70789063 0 0 Z " fill="#484747" transform="translate(7,105)"/>
<path d="M0 0 C1.05960938 0.00676758 1.05960938 0.00676758 2.140625 0.01367188 C3.88545275 0.02546125 5.630237 0.04339676 7.375 0.0625 C7.705 0.7225 8.035 1.3825 8.375 2.0625 C7.385 3.0525 6.395 4.0425 5.375 5.0625 C6.07625 5.289375 6.7775 5.51625 7.5 5.75 C11.06843613 7.37906867 13.44014511 9.46890731 16.375 12.0625 C15.92125 12.43375 15.4675 12.805 15 13.1875 C12.90470606 15.60514685 12.25486715 18.01680602 11.375 21.0625 C10.13196384 17.47150664 10.69383985 14.74581043 11.375 11.0625 C4.20209726 4.99256456 4.20209726 4.99256456 -4.26953125 1.6875 C-6.64542944 1.96445015 -6.64542944 1.96445015 -9.625 3.0625 C-9.625 2.4025 -9.625 1.7425 -9.625 1.0625 C-6.55966836 -0.47016582 -3.35745728 -0.04026471 0 0 Z " fill="#4F4F4F" transform="translate(124.625,-0.0625)"/>
<path d="M0 0 C-0.474375 0.598125 -0.94875 1.19625 -1.4375 1.8125 C-3.16465744 4.00382924 -3.16465744 4.00382924 -4 7 C-7.0625 8.6875 -7.0625 8.6875 -10 10 C-10.33 9.34 -10.66 8.68 -11 8 C-11.99 8 -12.98 8 -14 8 C-14 10.97 -14 13.94 -14 17 C-16.12508244 13.81237635 -16.5020163 11.73487777 -17 8 C-15.20966193 6.68568828 -13.41768797 5.3736047 -11.625 4.0625 C-10.62726562 3.33160156 -9.62953125 2.60070312 -8.6015625 1.84765625 C-5.08125246 -0.65250388 -4.0842704 -1.22528112 0 0 Z " fill="#494849" transform="translate(24,1)"/>
<path d="M0 0 C2 1 2 1 2.875 3 C3.8234856 5.20005805 3.8234856 5.20005805 6.125 5.75 C6.74375 5.8325 7.3625 5.915 8 6 C7.67 6.99 7.34 7.98 7 9 C3.4375 10.1875 3.4375 10.1875 0 11 C0 10.34 0 9.68 0 9 C-1.32 9 -2.64 9 -4 9 C-3.7215625 8.1028125 -3.7215625 8.1028125 -3.4375 7.1875 C-2.77906313 4.83591238 -2.77906313 4.83591238 -4 2 C-2.125 0.9375 -2.125 0.9375 0 0 Z " fill="#8F9190" transform="translate(99,112)"/>
<path d="M0 0 C-0.99 0.33 -1.98 0.66 -3 1 C-2.67 3.64 -2.34 6.28 -2 9 C-4.64 9 -7.28 9 -10 9 C-10.33 8.01 -10.66 7.02 -11 6 C-11.99 6.495 -11.99 6.495 -13 7 C-13 5.35 -13 3.7 -13 2 C-11.68 2 -10.36 2 -9 2 C-5.5647952 -0.29013653 -4.014669 -0.17842973 0 0 Z " fill="#ABAAAA" transform="translate(62,125)"/>
<path d="M0 0 C0.66 0 1.32 0 2 0 C2.33 1.98 2.66 3.96 3 6 C4.32 6 5.64 6 7 6 C7 6.66 7 7.32 7 8 C5.0424015 8.50286934 3.08389623 9.0022099 1.125 9.5 C0.03445312 9.7784375 -1.05609375 10.056875 -2.1796875 10.34375 C-5 11 -5 11 -7 11 C-7 9.35 -7 7.7 -7 6 C-6.01 6 -5.02 6 -4 6 C-3.67 4.35 -3.34 2.7 -3 1 C-2.01 1.99 -1.02 2.98 0 4 C0 2.68 0 1.36 0 0 Z " fill="#8E908F" transform="translate(92,115)"/>
<path d="M0 0 C4.29 0.66 8.58 1.32 13 2 C13 2.66 13 3.32 13 4 C12.34 4 11.68 4 11 4 C10.67 5.98 10.34 7.96 10 10 C9.67 10 9.34 10 9 10 C9 8.02 9 6.04 9 4 C8.34 4 7.68 4 7 4 C7 5.65 7 7.3 7 9 C6.01 9.495 6.01 9.495 5 10 C5 9.01 5 8.02 5 7 C3.35 7 1.7 7 0 7 C0 6.01 0 5.02 0 4 C0.66 4 1.32 4 2 4 C2 3.34 2 2.68 2 2 C1.34 2 0.68 2 0 2 C0 1.34 0 0.68 0 0 Z " fill="#D6D8D7" transform="translate(58,113)"/>
<path d="M0 0 C0.66 0.99 1.32 1.98 2 3 C-0.67550292 5.67550292 -2.94879894 5.83209389 -6.625 6.625 C-7.81351562 6.88539063 -9.00203125 7.14578125 -10.2265625 7.4140625 C-11.14179687 7.60742188 -12.05703125 7.80078125 -13 8 C-13 6.02 -13 4.04 -13 2 C-10.525 2.99 -10.525 2.99 -8 4 C-7.67 2.68 -7.34 1.36 -7 0 C-3.98968256 -0.93423645 -3.13349732 -1.04449911 0 0 Z " fill="#5F5E5F" transform="translate(107,126)"/>
<path d="M0 0 C0.99 0.495 0.99 0.495 2 1 C2.99 0.67 3.98 0.34 5 0 C5.06058594 0.68707031 5.12117187 1.37414062 5.18359375 2.08203125 C5.26738281 2.98308594 5.35117188 3.88414063 5.4375 4.8125 C5.51871094 5.70582031 5.59992187 6.59914063 5.68359375 7.51953125 C5.93489767 10.12743559 5.93489767 10.12743559 7 13 C9.50447516 14.21869929 9.50447516 14.21869929 12 15 C12.33 17.31 12.66 19.62 13 22 C7.24097017 16.74911986 2.54251558 10.42269952 0 3 C0 2.01 0 1.02 0 0 Z " fill="#403D3D" transform="translate(2,105)"/>
<path d="M0 0 C0.33 1.65 0.66 3.3 1 5 C0.01 5.66 -0.98 6.32 -2 7 C-2.99 6.67 -3.98 6.34 -5 6 C-4.67 5.34 -4.34 4.68 -4 4 C-4.556875 4.33 -5.11375 4.66 -5.6875 5 C-8.30284522 6.1309601 -10.1806646 6.15662974 -13 6 C-13 5.34 -13 4.68 -13 4 C-8.5975268 0.34916857 -5.67177385 -0.45374191 0 0 Z " fill="#484A49" transform="translate(69,56)"/>
<path d="M0 0 C0.68964844 0.44730469 1.37929688 0.89460937 2.08984375 1.35546875 C7.95121112 5.12636216 13.85634788 8.70821602 20 12 C19.01 13.485 19.01 13.485 18 15 C17.505 14.5875 17.01 14.175 16.5 13.75 C12.36599962 10.85619974 7.9023981 8.56667177 3.0625 7.125 C2.381875 6.75375 1.70125 6.3825 1 6 C0.37109375 2.9296875 0.37109375 2.9296875 0 0 Z " fill="#4B4D4F" transform="translate(28,131)"/>
<path d="M0 0 C0.99 0.33 1.98 0.66 3 1 C0.63450406 6.5658728 -2.91084731 10.58595572 -7 15 C-7.66 14.34 -8.32 13.68 -9 13 C-7.68 12.34 -6.36 11.68 -5 11 C-5 10.34 -5 9.68 -5 9 C-5.66 9 -6.32 9 -7 9 C-6.75881648 5.74402242 -5.47775788 4.2723696 -3.125 2.1875 C-2.09375 1.465625 -1.0625 0.74375 0 0 Z " fill="#434040" transform="translate(143,113)"/>
<path d="M0 0 C0.33 0 0.66 0 1 0 C1.14695313 0.58265625 1.29390625 1.1653125 1.4453125 1.765625 C3.18504664 8.12465325 5.70940765 13.70924657 8.79296875 19.53125 C10 22 10 22 10 24 C8 24 8 24 6 22.125 C5.34 21.42375 4.68 20.7225 4 20 C3.34 19.34 2.68 18.68 2 18 C1.62109375 16.125 1.62109375 16.125 1.4375 14 C1.22315216 11.62030153 1.07661332 10.15322664 0 8 C-0.13415472 5.3276379 -0.04318541 2.67749512 0 0 Z " fill="#4A3C3A" transform="translate(138,43)"/>
<path d="M0 0 C3 0.125 3 0.125 4 1.125 C4.1875 3.5625 4.1875 3.5625 4 6.125 C2 8.125 2 8.125 -0.5625 8.3125 C-3 8.125 -3 8.125 -4 7.125 C-4.125 4.125 -4.125 4.125 -4 1.125 C-3 0.125 -3 0.125 0 0 Z " fill="#7D7D7D" transform="translate(61,20.875)"/>
<path d="M0 0 C0.66 0.33 1.32 0.66 2 1 C-0.70615034 9.6309795 -0.70615034 9.6309795 -5 12 C-5.66 11.67 -6.32 11.34 -7 11 C-6.67 10.01 -6.34 9.02 -6 8 C-6.598125 8.350625 -7.19625 8.70125 -7.8125 9.0625 C-10 10 -10 10 -13 9 C-11.71802734 8.15115234 -11.71802734 8.15115234 -10.41015625 7.28515625 C-9.2942305 6.54433159 -8.17834728 5.80344286 -7.0625 5.0625 C-6.49853516 4.68931641 -5.93457031 4.31613281 -5.35351562 3.93164062 C-2.53966389 2.14034283 -2.53966389 2.14034283 0 0 Z " fill="#4F4D4F" transform="translate(123,130)"/>
<path d="M0 0 C1.52519276 0.08937803 3.04681929 0.24537146 4.5625 0.4375 C5.80193359 0.59025391 5.80193359 0.59025391 7.06640625 0.74609375 C7.70449219 0.82988281 8.34257813 0.91367188 9 1 C9 2.98 9 4.96 9 7 C6.03 6.67 3.06 6.34 0 6 C-0.38218767 4.34385343 -0.71395102 2.67542976 -1 1 C-0.67 0.67 -0.34 0.34 0 0 Z " fill="#686768" transform="translate(62,129)"/>
<path d="M0 0 C4.55555556 0.55555556 4.55555556 0.55555556 6 2 C6.04063832 3.66617115 6.042721 5.33388095 6 7 C3.29120665 8.35439668 0.99066732 8.06501451 -2 8 C-2.125 5.125 -2.125 5.125 -2 2 C-1.34 1.34 -0.68 0.68 0 0 Z " fill="#777777" transform="translate(34,68)"/>
<path d="M0 0 C2.3125 0.4375 2.3125 0.4375 5 2 C7.07502744 5.93080669 8.13957986 9.63211737 7.6875 14.0625 C7.460625 14.701875 7.23375 15.34125 7 16 C3.8601549 14.43007745 3.57856654 11.77552998 2.375 8.5625 C1.92898437 7.38816406 1.48296875 6.21382812 1.0234375 5.00390625 C0 2 0 2 0 0 Z " fill="#525255" transform="translate(133,46)"/>
<path d="M0 0 C1.8125 0.1875 1.8125 0.1875 4 1 C6.14197494 3.90696599 7 5.35521088 7 9 C2.16743695 8.58578031 0.17320782 6.53586014 -3 3 C-2.34 3 -1.68 3 -1 3 C-0.67 2.01 -0.34 1.02 0 0 Z " fill="#858786" transform="translate(36,95)"/>
<path d="M0 0 C0 0.99 0 1.98 0 3 C1.32 3.33 2.64 3.66 4 4 C2.73581754 4.69965443 1.46334598 5.38434763 0.1875 6.0625 C-0.52019531 6.44535156 -1.22789063 6.82820312 -1.95703125 7.22265625 C-4 8 -4 8 -7 7 C-7 6.01 -7 5.02 -7 4 C-7.66 3.67 -8.32 3.34 -9 3 C-5.55930376 0.70620251 -4.27709699 0 0 0 Z " fill="#515253" transform="translate(98,147)"/>
<path d="M0 0 C-1.33333333 4 -2.66666667 8 -4 12 C-4.14573058 13.47965926 -4.24663268 14.96403843 -4.31640625 16.44921875 C-4.35830078 17.29677734 -4.40019531 18.14433594 -4.44335938 19.01757812 C-4.48267578 19.89865234 -4.52199219 20.77972656 -4.5625 21.6875 C-4.60568359 22.58017578 -4.64886719 23.47285156 -4.69335938 24.39257812 C-4.79935353 26.59490108 -4.90142051 28.79733473 -5 31 C-5.33 31 -5.66 31 -6 31 C-6 24.73 -6 18.46 -6 12 C-6.66 11.67 -7.32 11.34 -8 11 C-7.505 10.278125 -7.01 9.55625 -6.5 8.8125 C-4.92080715 5.85151341 -4.71821688 4.28746971 -5 1 C-3 0 -3 0 0 0 Z " fill="#525456" transform="translate(10,65)"/>
<path d="M0 0 C2.77425784 1.38712892 3.61161954 3.2926581 5 6 C4.01 6.33 3.02 6.66 2 7 C1.34 6.67 0.68 6.34 0 6 C0.33 6.99 0.66 7.98 1 9 C-1.62187494 7.95125002 -2.79371361 7.35068687 -4.25 4.875 C-4.4975 4.25625 -4.745 3.6375 -5 3 C-2.6 0 -2.6 0 0 0 Z " fill="#5C5D5D" transform="translate(53,25)"/>
<path d="M0 0 C0.33 0 0.66 0 1 0 C1.66 2.97 2.32 5.94 3 9 C4.32 9.33 5.64 9.66 7 10 C0.565 12.97 0.565 12.97 -6 16 C-6.33 15.34 -6.66 14.68 -7 14 C-6 12 -6 12 -3.5 10.9375 C-0.83011613 9.2802252 -0.83011613 9.2802252 -0.44921875 6.8046875 C-0.21040266 4.530588 -0.05270768 2.2855965 0 0 Z " fill="#EFEFF0" transform="translate(65,18)"/>
<path d="M0 0 C4.52671196 0.53255435 7.4200555 2.21559872 11 5 C12.375 7.25 12.375 7.25 13 9 C10.69 8.67 8.38 8.34 6 8 C6 7.34 6 6.68 6 6 C5.21625 5.690625 4.4325 5.38125 3.625 5.0625 C1 4 1 4 -1 3 C-0.67 2.01 -0.34 1.02 0 0 Z " fill="#453E3B" transform="translate(131,2)"/>
<path d="M0 0 C5.28 0 10.56 0 16 0 C15.67 0.99 15.34 1.98 15 3 C14.34773438 2.88140625 13.69546875 2.7628125 13.0234375 2.640625 C7.05349971 1.71451943 7.05349971 1.71451943 1.5625 4 C0.716875 4.66 -0.12875 5.32 -1 6 C-1.99 5.67 -2.98 5.34 -4 5 C-3.67 4.34 -3.34 3.68 -3 3 C-2.34 3 -1.68 3 -1 3 C-0.67 2.01 -0.34 1.02 0 0 Z " fill="#4A4C4C" transform="translate(24,0)"/>
<path d="M0 0 C0 0.66 0 1.32 0 2 C-0.66 2 -1.32 2 -2 2 C-1.67 4.97 -1.34 7.94 -1 11 C-1.66 11 -2.32 11 -3 11 C-3 10.01 -3 9.02 -3 8 C-4.98 7.01 -6.96 6.02 -9 5 C-8.6875 3.0625 -8.6875 3.0625 -8 1 C-5.07175348 0.02391783 -3.04386724 -0.08226668 0 0 Z " fill="#656565" transform="translate(41,56)"/>
<path d="M0 0 C-0.33 1.98 -0.66 3.96 -1 6 C-1.66 6 -2.32 6 -3 6 C-3.33 5.01 -3.66 4.02 -4 3 C-4.66 4.32 -5.32 5.64 -6 7 C-7.32 7 -8.64 7 -10 7 C-10 5.02 -10 3.04 -10 1 C-6.59437148 0.22157062 -3.49234244 -0.09978121 0 0 Z " fill="#5A5859" transform="translate(90,129)"/>
<path d="M0 0 C0.99 0.33 1.98 0.66 3 1 C3 3.31 3 5.62 3 8 C0.125 8.625 0.125 8.625 -3 9 C-5 7 -5 7 -5.125 3.875 C-5.08375 2.92625 -5.0425 1.9775 -5 1 C-4.34 1 -3.68 1 -3 1 C-2.67 2.98 -2.34 4.96 -2 7 C-1.34 7 -0.68 7 0 7 C0 4.69 0 2.38 0 0 Z " fill="#636363" transform="translate(71,17)"/>
<path d="M0 0 C2.56616632 3.84924948 2.55097676 6.4349304 3 11 C0.92446352 11.5534764 -0.84365964 12 -3 12 C-3.66 13.32 -4.32 14.64 -5 16 C-5.66 15.67 -6.32 15.34 -7 15 C-6.401875 14.195625 -5.80375 13.39125 -5.1875 12.5625 C-2.57258769 8.68200735 -1.30777251 4.45831538 0 0 Z " fill="#545455" transform="translate(144,102)"/>
<path d="M0 0 C4.49992245 1.25579231 7.63305557 2.7265818 11 6 C12.3125 8.75 12.3125 8.75 13 11 C9 11 9 11 7.1484375 9.35546875 C6.27058594 8.28232422 6.27058594 8.28232422 5.375 7.1875 C4.78460937 6.47980469 4.19421875 5.77210937 3.5859375 5.04296875 C2.32110721 3.41364303 1.14414872 1.71622308 0 0 Z " fill="#555656" transform="translate(27,84)"/>
<path d="M0 0 C-0.50603992 2.16874252 -0.99983813 3.99967627 -2 6 C-1.01 6 -0.02 6 1 6 C1 6.66 1 7.32 1 8 C-1.64 8.33 -4.28 8.66 -7 9 C-6 7 -5 5 -4 3 C-5.32 3.33 -6.64 3.66 -8 4 C-8 3.34 -8 2.68 -8 2 C-2.25 0 -2.25 0 0 0 Z " fill="#555656" transform="translate(118,51)"/>
<path d="M0 0 C0.33 1.65 0.66 3.3 1 5 C-2.13498292 6.85776765 -4.37471432 7.20140476 -8 7 C-8.33 6.01 -8.66 5.02 -9 4 C-3.375 0 -3.375 0 0 0 Z " fill="#484747" transform="translate(91,151)"/>
<path d="M0 0 C2.4375 0.8125 2.4375 0.8125 5 2 C5.33 2.99 5.66 3.98 6 5 C6.66 5 7.32 5 8 5 C7.42805835 8.31726155 6.42999536 9.72635823 4 12 C3.3291288 10.3767313 2.66342971 8.75132422 2 7.125 C1.62875 6.22007813 1.2575 5.31515625 0.875 4.3828125 C0 2 0 2 0 0 Z " fill="#4E4D4E" transform="translate(140,62)"/>
<path d="M0 0 C0.66 0 1.32 0 2 0 C0.50708815 3.80013925 -1.62377323 5.74918216 -5 8 C-6.32 8 -7.64 8 -9 8 C-9 7.34 -9 6.68 -9 6 C-9.66 6 -10.32 6 -11 6 C-11 5.34 -11 4.68 -11 4 C-7.33864343 2.11026758 -6.25792748 2 -2 2 C-1.34 1.34 -0.68 0.68 0 0 Z " fill="#898A8A" transform="translate(117,97)"/>
<path d="M0 0 C0 1.65 0 3.3 0 5 C0.99 5 1.98 5 3 5 C2.67 5.99 2.34 6.98 2 8 C-0.31 8.33 -2.62 8.66 -5 9 C-4.67 7.35 -4.34 5.7 -4 4 C-4.99 3.67 -5.98 3.34 -7 3 C-2.25 0 -2.25 0 0 0 Z " fill="#565657" transform="translate(114,42)"/>
<path d="M0 0 C0.598125 0.226875 1.19625 0.45375 1.8125 0.6875 C-0.15068174 4.22122712 -2.22820881 6.93229785 -5.1875 9.6875 C-6.1775 9.3575 -7.1675 9.0275 -8.1875 8.6875 C-3.875 -0.55357143 -3.875 -0.55357143 0 0 Z " fill="#4A4C4B" transform="translate(120.1875,86.3125)"/>
<path d="M0 0 C2.375 -0.125 2.375 -0.125 5 0 C5.66 0.66 6.32 1.32 7 2 C6.625 4.125 6.625 4.125 6 6 C4.68 6 3.36 6 2 6 C2 6.66 2 7.32 2 8 C1.34 8 0.68 8 0 8 C0 5.36 0 2.72 0 0 Z " fill="#6D6D6D" transform="translate(76,17)"/>
<path d="M0 0 C1 1 1 1 2 4 C-1.4352048 6.29013653 -2.985331 6.17842973 -7 6 C-6.75 3.625 -6.75 3.625 -6 1 C-2.69333333 -1.34666667 -2.69333333 -1.34666667 0 0 Z " fill="#4C4C4B" transform="translate(105,144)"/>
<path d="M0 0 C0.66 0 1.32 0 2 0 C1.67 1.98 1.34 3.96 1 6 C1.99 5.34 2.98 4.68 4 4 C3.34 3.67 2.68 3.34 2 3 C2.99 2.34 3.98 1.68 5 1 C5.66 2.32 6.32 3.64 7 5 C6.01 6.485 6.01 6.485 5 8 C2.5 8.3125 2.5 8.3125 0 8 C-0.66 7.34 -1.32 6.68 -2 6 C-1.44444444 1.44444444 -1.44444444 1.44444444 0 0 Z " fill="#5D5E5E" transform="translate(44,32)"/>
<path d="M0 0 C4.29 0 8.58 0 13 0 C13.33 1.32 13.66 2.64 14 4 C12.02 4 10.04 4 8 4 C8 3.01 8 2.02 8 1 C7.01 1.495 7.01 1.495 6 2 C6 2.99 6 3.98 6 5 C5.34 5 4.68 5 4 5 C4 3.68 4 2.36 4 1 C3.34 1 2.68 1 2 1 C2 1.99 2 2.98 2 4 C1.34 4 0.68 4 0 4 C0 2.68 0 1.36 0 0 Z " fill="#A4A4A4" transform="translate(61,7)"/>
<path d="M0 0 C5.75 1.875 5.75 1.875 8 3 C7 6 7 6 5.125 7.1875 C3 8 3 8 0 8 C0 5.36 0 2.72 0 0 Z " fill="#5C5D5D" transform="translate(112,61)"/>
<path d="M0 0 C0.66 0 1.32 0 2 0 C2 1.65 2 3.3 2 5 C3.32 4.67 4.64 4.34 6 4 C4.84826645 6.46800047 3.95216435 8.04783565 2 10 C1.01 9.67 0.02 9.34 -1 9 C-0.34 8.01 0.32 7.02 1 6 C-0.65 6.33 -2.3 6.66 -4 7 C-2.79618552 4.50638429 -1.54571278 2.31856917 0 0 Z " fill="#5B5B5B" transform="translate(101,27)"/>
<path d="M0 0 C0.99 0.33 1.98 0.66 3 1 C3.6875 3.8125 3.6875 3.8125 4 7 C2.625 8.75 2.625 8.75 1 10 C0.67 10.66 0.34 11.32 0 12 C-0.66 12 -1.32 12 -2 12 C-0.125 7.25 -0.125 7.25 1 5 C-0.70840281 6.63412443 -1.93453047 7.86906094 -3 10 C-3.66 10 -4.32 10 -5 10 C-3.125 5.25 -3.125 5.25 -2 3 C-0.68 3.33 0.64 3.66 2 4 C1.34 2.68 0.68 1.36 0 0 Z " fill="#E1E2E2" transform="translate(50,106)"/>
<path d="M0 0 C0.66 0 1.32 0 2 0 C0.66666667 3.33333333 -0.66666667 6.66666667 -2 10 C-3.32 9.67 -4.64 9.34 -6 9 C-5.67 8.01 -5.34 7.02 -5 6 C-5.39397335 3.36195411 -5.39397335 3.36195411 -6 1 C-5.01 1.33 -4.02 1.66 -3 2 C-3.33 2.99 -3.66 3.98 -4 5 C-3.34 5 -2.68 5 -2 5 C-1.34 3.35 -0.68 1.7 0 0 Z " fill="#8F908F" transform="translate(49,111)"/>
<path d="M0 0 C2.51033417 1.1336993 2.96441202 2.36118938 3.9375 4.875 C2.9475 4.875 1.9575 4.875 0.9375 4.875 C0.6075 4.545 0.2775 4.215 -0.0625 3.875 C-0.3925 4.535 -0.7225 5.195 -1.0625 5.875 C-1.7225 5.545 -2.3825 5.215 -3.0625 4.875 C-2.7325 6.195 -2.4025 7.515 -2.0625 8.875 C-3.3825 7.885 -4.7025 6.895 -6.0625 5.875 C-5.75 4 -5.75 4 -5.0625 1.875 C-2.0625 -0.125 -2.0625 -0.125 0 0 Z " fill="#5A5A5A" transform="translate(109.0625,35.125)"/>
<path d="M0 0 C5.77706264 1.23794199 8.46176466 3.19810918 12 8 C11.01 8.66 10.02 9.32 9 10 C7.78715124 13.05429073 7.78715124 13.05429073 7 16 C5.7619986 12.42355152 6.25073929 9.66305234 7 6 C6.4946875 5.65066406 5.989375 5.30132812 5.46875 4.94140625 C4.49421875 4.25884766 4.49421875 4.25884766 3.5 3.5625 C2.8503125 3.11003906 2.200625 2.65757812 1.53125 2.19140625 C1.0259375 1.79824219 0.520625 1.40507813 0 1 C0 0.67 0 0.34 0 0 Z " fill="#5B5B5D" transform="translate(129,5)"/>
<path d="M0 0 C0.66 0 1.32 0 2 0 C2.33 2.31 2.66 4.62 3 7 C1.02 7.99 1.02 7.99 -1 9 C-1 8.34 -1 7.68 -1 7 C-1.66 7 -2.32 7 -3 7 C-2.67 5.35 -2.34 3.7 -2 2 C-1.34 2 -0.68 2 0 2 C0 1.34 0 0.68 0 0 Z " fill="#4C4A4B" transform="translate(4,98)"/>
<path d="M0 0 C0.66 0.33 1.32 0.66 2 1 C2 3.97 2 6.94 2 10 C1.34 10 0.68 10 0 10 C0 9.01 0 8.02 0 7 C-0.66 7 -1.32 7 -2 7 C-1.34 8.98 -0.68 10.96 0 13 C-0.66 13 -1.32 13 -2 13 C-4.29648649 10.4385343 -5 9.52032428 -5 6 C-4.360625 5.7525 -3.72125 5.505 -3.0625 5.25 C-0.81258459 4.18437567 -0.81258459 4.18437567 -0.25 1.875 C-0.1675 1.25625 -0.085 0.6375 0 0 Z " fill="#E3E4E4" transform="translate(105,104)"/>
<path d="M0 0 C3.465 1.98 3.465 1.98 7 4 C3.375 7 3.375 7 0 7 C-1.67099977 7.31088368 -3.33871537 7.64080332 -5 8 C-5 7.01 -5 6.02 -5 5 C-3.02 5 -1.04 5 1 5 C0.67 3.35 0.34 1.7 0 0 Z " fill="#919392" transform="translate(42,99)"/>
<path d="M0 0 C2.51912388 0.33588318 3.67196119 0.57354954 5.25 2.625 C6.25295915 5.8010373 6.12721966 8.69228878 6 12 C5.34 11.01 4.68 10.02 4 9 C3.01 9.495 3.01 9.495 2 10 C1.77213542 7.98177083 1.54427083 5.96354167 1.31640625 3.9453125 C1.08707039 1.92595684 1.08707039 1.92595684 0 0 Z " fill="#C9CACB" transform="translate(96,60)"/>
<path d="M0 0 C2.49361571 1.20381448 4.68143083 2.45428722 7 4 C7 4.99 7 5.98 7 7 C4.03 7 1.06 7 -2 7 C-2 6.34 -2 5.68 -2 5 C-0.68 4.67 0.64 4.34 2 4 C1.34 2.68 0.68 1.36 0 0 Z " fill="#5B5B5B" transform="translate(36,44)"/>
<path d="M0 0 C0.99 0.33 1.98 0.66 3 1 C3.8125 2.875 3.8125 2.875 4 5 C3.01 6.485 3.01 6.485 2 8 C0.0625 7.1875 0.0625 7.1875 -2 6 C-2.33 5.01 -2.66 4.02 -3 3 C-2.01 2.01 -1.02 1.02 0 0 Z " fill="#EAEBEC" transform="translate(76,38)"/>
<path d="M0 0 C1.65 0.33 3.3 0.66 5 1 C4.625 2.9375 4.625 2.9375 4 5 C3.01 5.495 3.01 5.495 2 6 C1.34 5.67 0.68 5.34 0 5 C0 5.99 0 6.98 0 8 C-0.66 8 -1.32 8 -2 8 C-2 6.02 -2 4.04 -2 2 C-1.34 1.67 -0.68 1.34 0 1 C0 0.67 0 0.34 0 0 Z " fill="#CED0CF" transform="translate(43,107)"/>
<path d="M0 0 C0.66 0.33 1.32 0.66 2 1 C0.02 5.29 -1.96 9.58 -4 14 C-4.66 13.67 -5.32 13.34 -6 13 C-4.7874262 9.27566618 -3.49140021 5.62197194 -2 2 C-1.34 2 -0.68 2 0 2 C0 1.34 0 0.68 0 0 Z " fill="#4E4D52" transform="translate(15,50)"/>
<path d="M0 0 C1.98 1.65 3.96 3.3 6 5 C6.33 4.01 6.66 3.02 7 2 C8.32 2.66 9.64 3.32 11 4 C6.89592866 6.73604756 3.88602075 6.32800361 -0.875 5.5 C-1.926875 5.2525 -1.926875 5.2525 -3 5 C-2.67 4.01 -2.34 3.02 -2 2 C-1.34 2.33 -0.68 2.66 0 3 C0 2.01 0 1.02 0 0 Z " fill="#57585A" transform="translate(72,41)"/>
<path d="M0 0 C2 2 2 2 2 4 C2.32205743 6.33491639 2.65458149 8.66842508 3 11 C-0.16115776 9.63016497 -0.9927092 9.0109362 -3 6 C-3 4 -3 4 -2 1 C-1.34 0.67 -0.68 0.34 0 0 Z " fill="#919392" transform="translate(29,101)"/>
<path d="M0 0 C0 0.66 0 1.32 0 2 C0.66 2.33 1.32 2.66 2 3 C0.68 3.33 -0.64 3.66 -2 4 C-2.33 3.01 -2.66 2.02 -3 1 C-3.33 1.99 -3.66 2.98 -4 4 C-6.66666667 4 -9.33333333 4 -12 4 C-4.75 -1.69642857 -4.75 -1.69642857 0 0 Z " fill="#9B9B9B" transform="translate(108,103)"/>
<path d="M0 0 C3.63 0.33 7.26 0.66 11 1 C11 1.66 11 2.32 11 3 C4.375 5.125 4.375 5.125 1 4 C0.67 2.68 0.34 1.36 0 0 Z " fill="#B7B7B7" transform="translate(83,7)"/>
<path d="M0 0 C1.67542976 0.28604898 3.34385343 0.61781233 5 1 C5.33 1.99 5.66 2.98 6 4 C5.34 4 4.68 4 4 4 C4 3.34 4 2.68 4 2 C3.01 2.33 2.02 2.66 1 3 C0.67 3.99 0.34 4.98 0 6 C1.32 6.33 2.64 6.66 4 7 C2.125 7.625 2.125 7.625 0 8 C-0.66 7.34 -1.32 6.68 -2 6 C-1.44444444 1.44444444 -1.44444444 1.44444444 0 0 Z " fill="#565656" transform="translate(93,23)"/>
<path d="M0 0 C0.33 0 0.66 0 1 0 C1 1.65 1 3.3 1 5 C1.66 5.33 2.32 5.66 3 6 C1.68 6.33 0.36 6.66 -1 7 C1.97 7.495 1.97 7.495 5 8 C5 8.33 5 8.66 5 9 C3.56344146 9.08131463 2.1255517 9.13933559 0.6875 9.1875 C-0.51326172 9.23970703 -0.51326172 9.23970703 -1.73828125 9.29296875 C-4.47851584 8.93801608 -5.29171079 8.10633718 -7 6 C-5.02 5.67 -3.04 5.34 -1 5 C-0.67 3.35 -0.34 1.7 0 0 Z " fill="#CFCFCF" transform="translate(75,20)"/>
<path d="M0 0 C2.31 0 4.62 0 7 0 C7.33 0.99 7.66 1.98 8 3 C5.1875 4.125 5.1875 4.125 2 5 C1.01 4.34 0.02 3.68 -1 3 C-0.67 2.01 -0.34 1.02 0 0 Z " fill="#C3C5C4" transform="translate(93,109)"/>
<path d="M0 0 C1.71017726 2.5652659 2.90417811 4.87960965 4.125 7.6875 C4.47820313 8.49574219 4.83140625 9.30398437 5.1953125 10.13671875 C5.46085938 10.75160156 5.72640625 11.36648437 6 12 C4.02 11.34 2.04 10.68 0 10 C0 6.7 0 3.4 0 0 Z " fill="#545758" transform="translate(7,105)"/>
<path d="M0 0 C0.66 0 1.32 0 2 0 C2.28571429 7.42857143 2.28571429 7.42857143 0 11 C-0.33 11 -0.66 11 -1 11 C-1.33 8.03 -1.66 5.06 -2 2 C-1.34 2 -0.68 2 0 2 C0 1.34 0 0.68 0 0 Z " fill="#F7F7F7" transform="translate(41,56)"/>
<path d="M0 0 C0.66 0.33 1.32 0.66 2 1 C0 4 0 4 -4 5 C-4 7.97 -4 10.94 -4 14 C-6.12508244 10.81237635 -6.5020163 8.73487777 -7 5 C-4.69 3.35 -2.38 1.7 0 0 Z " fill="#543A3C" transform="translate(14,4)"/>
<path d="M0 0 C1.2065625 0.0309375 1.2065625 0.0309375 2.4375 0.0625 C2.03946439 2.94825819 1.64740931 3.88439513 -0.625 5.8125 C-1.264375 6.225 -1.90375 6.6375 -2.5625 7.0625 C-2.35625 6.44375 -2.15 5.825 -1.9375 5.1875 C-1.81375 4.48625 -1.69 3.785 -1.5625 3.0625 C-2.2225 2.4025 -2.8825 1.7425 -3.5625 1.0625 C-2.5625 0.0625 -2.5625 0.0625 0 0 Z M-3.5625 7.0625 C-3.2325 7.7225 -2.9025 8.3825 -2.5625 9.0625 C-3.2225 9.7225 -3.8825 10.3825 -4.5625 11.0625 C-5.2225 10.4025 -5.8825 9.7425 -6.5625 9.0625 C-5.5725 8.4025 -4.5825 7.7425 -3.5625 7.0625 Z " fill="#6F7070" transform="translate(122.5625,83.9375)"/>
<path d="M0 0 C0.53625 0.2475 1.0725 0.495 1.625 0.75 C0.965 0.75 0.305 0.75 -0.375 0.75 C-0.684375 1.389375 -0.99375 2.02875 -1.3125 2.6875 C-2.375 4.75 -2.375 4.75 -3.375 5.75 C-5.04117115 5.79063832 -6.70888095 5.792721 -8.375 5.75 C-8.375 5.09 -8.375 4.43 -8.375 3.75 C-3.23290173 -0.34030544 -3.23290173 -0.34030544 0 0 Z " fill="#545655" transform="translate(64.375,56.25)"/>
<path d="M0 0 C1.65 0 3.3 0 5 0 C3.68 3.3 2.36 6.6 1 10 C0.67 10 0.34 10 0 10 C-0.19412181 8.52168779 -0.38012131 7.04230684 -0.5625 5.5625 C-0.66691406 4.73878906 -0.77132813 3.91507813 -0.87890625 3.06640625 C-0.91886719 2.38449219 -0.95882813 1.70257813 -1 1 C-0.67 0.67 -0.34 0.34 0 0 Z " fill="#3F4243" transform="translate(10,8)"/>
<path d="M0 0 C0 0.66 0 1.32 0 2 C-0.66 2 -1.32 2 -2 2 C-1.67 3.32 -1.34 4.64 -1 6 C-0.34 6 0.32 6 1 6 C1 5.01 1 4.02 1 3 C1.99 3.33 2.98 3.66 4 4 C3.67 4.99 3.34 5.98 3 7 C1.02 7 -0.96 7 -3 7 C-3 6.01 -3 5.02 -3 4 C-3.66 3.67 -4.32 3.34 -5 3 C-2.25 0 -2.25 0 0 0 Z " fill="#E0E2E1" transform="translate(121,98)"/>
<path d="M0 0 C1.32 0.66 2.64 1.32 4 2 C3.67 2.99 3.34 3.98 3 5 C0.4375 6.1875 0.4375 6.1875 -2 7 C-2.125 4.625 -2.125 4.625 -2 2 C-1.34 1.34 -0.68 0.68 0 0 Z " fill="#444343" transform="translate(125,130)"/>
<path d="M0 0 C2.475 0.495 2.475 0.495 5 1 C4.67 2.65 4.34 4.3 4 6 C2.68 6 1.36 6 0 6 C0 4.02 0 2.04 0 0 Z " fill="#5B5B5B" transform="translate(72,130)"/>
<path d="M0 0 C3 1 3 1 5 4 C4.34 4.66 3.68 5.32 3 6 C2.01 6 1.02 6 0 6 C0 5.34 0 4.68 0 4 C-0.99 3.67 -1.98 3.34 -3 3 C-2.01 2.01 -1.02 1.02 0 0 Z " fill="#706E6F" transform="translate(104,125)"/>
<path d="M0 0 C0.66 0 1.32 0 2 0 C2 0.66 2 1.32 2 2 C2.99 2 3.98 2 5 2 C4.34 3.65 3.68 5.3 3 7 C2.67 6.34 2.34 5.68 2 5 C0.68 5 -0.64 5 -2 5 C-1.34 3.35 -0.68 1.7 0 0 Z " fill="#545554" transform="translate(38,122)"/>
<path d="M0 0 C2.49349318 1.24674659 3.46640071 2.69960106 5 5 C5 5.66 5 6.32 5 7 C2.69 6.34 0.38 5.68 -2 5 C-1.125 1.125 -1.125 1.125 0 0 Z " fill="#CDCFCE" transform="translate(114,102)"/>
<path d="M0 0 C1.15224028 0.92961422 2.29659176 1.8690125 3.4375 2.8125 C4.07558594 3.33457031 4.71367188 3.85664062 5.37109375 4.39453125 C7 6 7 6 8 9 C7.34 9.66 6.68 10.32 6 11 C4.9944239 9.54550599 3.99569565 8.08627557 3 6.625 C2.443125 5.81289062 1.88625 5.00078125 1.3125 4.1640625 C0 2 0 2 0 0 Z " fill="#DFE0E2" transform="translate(50,73)"/>
<path d="M0 0 C3.63 0 7.26 0 11 0 C11 0.66 11 1.32 11 2 C11.66 2.66 12.32 3.32 13 4 C8.428721 3.45144652 4.32564205 2.58255197 0 1 C0 0.67 0 0.34 0 0 Z " fill="#505050" transform="translate(85,0)"/>
<path d="M0 0 C0.99 0 1.98 0 3 0 C3.33 0.99 3.66 1.98 4 3 C3.34 3.66 2.68 4.32 2 5 C-1.44165321 4.64700993 -3.06872538 3.95418308 -6 2 C-4.02 2 -2.04 2 0 2 C0 1.34 0 0.68 0 0 Z " fill="#848685" transform="translate(101,105)"/>
<path d="M0 0 C1.98 0 3.96 0 6 0 C6 1.32 6 2.64 6 4 C5.01 4.33 4.02 4.66 3 5 C3 4.34 3 3.68 3 3 C2.01 3.33 1.02 3.66 0 4 C0 2.68 0 1.36 0 0 Z " fill="#494C4D" transform="translate(145,98)"/>
<path d="M0 0 C0.99 0.33 1.98 0.66 3 1 C3 3.31 3 5.62 3 8 C2.01 8 1.02 8 0 8 C0 5.36 0 2.72 0 0 Z " fill="#727272" transform="translate(71,17)"/>
<path d="M0 0 C0.495 0.37125 0.99 0.7425 1.5 1.125 C0.324375 1.2796875 0.324375 1.2796875 -0.875 1.4375 C-3.83045181 1.90095022 -3.83045181 1.90095022 -5.5 5.125 C-7.15 3.805 -8.8 2.485 -10.5 1.125 C-3.11538462 -1.09038462 -3.11538462 -1.09038462 0 0 Z " fill="#9EA09F" transform="translate(96.5,107.875)"/>
<path d="M0 0 C3.82097239 0.53069061 6.06171403 1.49701566 9 4 C1.25 4.125 1.25 4.125 -1 3 C-0.67 2.01 -0.34 1.02 0 0 Z " fill="#3B3736" transform="translate(131,2)"/>
<path d="M0 0 C0.66 0.33 1.32 0.66 2 1 C1.34 2.32 0.68 3.64 0 5 C-2.97 4.505 -2.97 4.505 -6 4 C-3.94766315 1.7522025 -2.99332739 0.9977758 0 0 Z " fill="#43403F" transform="translate(109,142)"/>
<path d="M0 0 C0.33 0.66 0.66 1.32 1 2 C2.32 2 3.64 2 5 2 C5 2.66 5 3.32 5 4 C2.69 4.33 0.38 4.66 -2 5 C-2.33 4.34 -2.66 3.68 -3 3 C-2.01 3 -1.02 3 0 3 C0 2.01 0 1.02 0 0 Z " fill="#848685" transform="translate(94,119)"/>
<path d="M0 0 C2.475 0.495 2.475 0.495 5 1 C5 1.66 5 2.32 5 3 C5.66 3.33 6.32 3.66 7 4 C5.1875 4.6875 5.1875 4.6875 3 5 C1.25 3.6875 1.25 3.6875 0 2 C0 1.34 0 0.68 0 0 Z " fill="#B6B8B7" transform="translate(98,114)"/>
<path d="M0 0 C1.65 0.33 3.3 0.66 5 1 C3.6875 3 3.6875 3 2 5 C1.01 5 0.02 5 -1 5 C-0.67 3.35 -0.34 1.7 0 0 Z " fill="#464649" transform="translate(128,0)"/>
<path d="M0 0 C2.475 0.495 2.475 0.495 5 1 C4.67 2.65 4.34 4.3 4 6 C3.34 5.34 2.68 4.68 2 4 C1.01 4.495 1.01 4.495 0 5 C0 3.35 0 1.7 0 0 Z " fill="#454445" transform="translate(49,127)"/>
<path d="M0 0 C2.64 0.33 5.28 0.66 8 1 C8 1.66 8 2.32 8 3 C5.36 3 2.72 3 0 3 C0 2.01 0 1.02 0 0 Z " fill="#606160" transform="translate(111,70)"/>
<path d="M0 0 C2.475 0.495 2.475 0.495 5 1 C4.67 1.99 4.34 2.98 4 4 C2.68 4 1.36 4 0 4 C0 2.68 0 1.36 0 0 Z " fill="#434746" transform="translate(62,152)"/>
<path d="M0 0 C0.99 1.32 1.98 2.64 3 4 C1.02 4 -0.96 4 -3 4 C-3.33 3.01 -3.66 2.02 -4 1 C-2.68 0.67 -1.36 0.34 0 0 Z " fill="#40423F" transform="translate(27,131)"/>
<path d="M0 0 C2.62113708 0 4.50935112 0.31292445 7 1 C6.34 1.66 5.68 2.32 5 3 C4.67 3.66 4.34 4.32 4 5 C2.35 4.01 0.7 3.02 -1 2 C-0.67 1.34 -0.34 0.68 0 0 Z " fill="#868786" transform="translate(44,104)"/>
<path d="M0 0 C2.475 0.495 2.475 0.495 5 1 C5 2.32 5 3.64 5 5 C4.01 5.495 4.01 5.495 3 6 C2.01 4.02 1.02 2.04 0 0 Z " fill="#575958" transform="translate(69,49)"/>
<path d="M0 0 C2.0625 0.4375 2.0625 0.4375 4 1 C3.67 2.32 3.34 3.64 3 5 C2.01 5 1.02 5 0 5 C-0.5625 3.0625 -0.5625 3.0625 -1 1 C-0.67 0.67 -0.34 0.34 0 0 Z " fill="#838383" transform="translate(51,25)"/>
<path d="M0 0 C0.66 0 1.32 0 2 0 C2 0.66 2 1.32 2 2 C2.66 2.33 3.32 2.66 4 3 C3.67 3.99 3.34 4.98 3 6 C2.01 5.67 1.02 5.34 0 5 C-0.75 3 -0.75 3 -1 1 C-0.67 0.67 -0.34 0.34 0 0 Z " fill="#535152" transform="translate(100,126)"/>
<path d="M0 0 C-0.33 0.99 -0.66 1.98 -1 3 C-3.64 2.67 -6.28 2.34 -9 2 C-9 1.67 -9 1.34 -9 1 C-5.846632 0.29925156 -3.27275026 0 0 0 Z " fill="#5F6062" transform="translate(40,0)"/>
</svg>
